<svg width="368" height="265" fill="none" xmlns="http://www.w3.org/2000/svg">
  <path d="M185.524 41.945c1.836.716 3.671 1.431 5.492 2.19l-1.578 2.66c-1.802-.73-3.604-1.461-5.421-2.149l1.507-2.7zm16.361 6.82c1.78.795 3.527 1.606 5.293 2.444l-1.745 2.574-5.248-2.41 1.7-2.608zm15.772 7.56l5.154 2.689-1.946 2.503a242.978 242.978 0 00-5.083-2.648l1.875-2.544zm15.244 8.292c1.644.948 3.306 1.924 4.936 2.915l-2.106 2.396-4.891-2.881 2.061-2.43zm61.381-19.191c2.062 1.1 4.063 2.19 5.987 3.328l-2.339 3.404a151.4 151.4 0 00-5.848-3.242l2.2-3.49zm17.484 10.724c1.895 1.377 3.722 2.772 5.394 4.018l-2.831 3.194a92.055 92.055 0 00-5.21-3.985l2.647-3.227zM145.461 29.044l6.904 1.23-.995 3.919-6.737-1.383.828-3.766zm-13.868-2.224l-.772 3.927c-2.302-.41-4.639-.55-6.87-.734l.65-3.95c2.2.178 4.538.442 6.931.746l.061.01zm34.198 7.036l6.672 1.892-1.447 3.807c-2.204-.667-4.392-1.27-6.58-1.874l1.355-3.825zm-55.588-8.43l-.267 3.956c-2.336-.018-4.688.021-6.924.112l.045-3.965c2.457-.205 4.87-.234 7.298-.199l-.152.096zm-21.466 1.557l.522 3.883c-2.349.407-4.612.86-6.768 1.393l-.89-3.826a69.317 69.317 0 017.288-1.545l-.152.095zm238.009 42.93a50.863 50.863 0 014.059 5.492l-3.752 2.144a47.526 47.526 0 00-3.772-5.104l3.465-2.532zM67.8 33.281l1.73 3.548a40.858 40.858 0 00-3.708 1.969l-2.164 1.326-2.149-3.287 2.34-1.386c1.219-.884 2.714-1.596 4.103-2.265l-.152.095zM336.132 88.03c.521 2.246.797 4.548.822 6.87l-4.205.138a26.334 26.334 0 00-.571-6.215l3.954-.793zM259.49 75.36l5.944 3.75-2.563 3.272c-1.84-1.214-3.712-2.434-5.498-3.608l2.117-3.413zM49.613 45.296l2.773 2.848a53.37 53.37 0 00-4.756 4.716l-3.17-2.43a57.682 57.682 0 015.335-5.224l-.183.09zm226.784 41.543a366.79 366.79 0 015.395 4.018l-2.665 2.918c-1.742-1.35-3.515-2.704-5.395-4.017l2.665-2.919zm16.01 12.358a146.626 146.626 0 015.023 4.47l-3.017 2.917a191.776 191.776 0 00-4.938-4.425l2.932-2.963zm37.453 7.86l3.834 1.447a46.339 46.339 0 01-3.626 6.202l-3.494-2.029a42.3 42.3 0 003.187-5.484l.099-.136zM37.13 62.513l3.977 1.136a27.53 27.53 0 00-.926 2.892 25.483 25.483 0 00-.558 2.957l-4.185-.317a33.1 33.1 0 01.684-3.454c.254-1.037.558-2.064.91-3.079l.098-.135zm269.876 50.561c1.537 1.649 3.075 3.299 4.513 4.961l-3.295 2.623a174.903 174.903 0 00-4.413-4.852l3.195-2.732zm10.519 9.729l2.857 2.77a103.586 103.586 0 01-5.562 4.604l-2.445-3.003c1.743-1.432 3.531-2.917 5.15-4.371zm2.268 5.722a111.063 111.063 0 013.761 5.53l-3.759 2.173c-1.148-1.794-2.326-3.47-3.636-5.385l3.634-2.318zM40.414 82.049a41.603 41.603 0 002.132 5.882l-3.9 1.72a47.777 47.777 0 01-2.29-6.52l4.058-1.082zm260.304 52.769l2.05 3.422a177.813 177.813 0 01-6.33 3.458l-1.866-3.389c2.135-1.209 4.187-2.342 6.146-3.491zm29.259 11.079c.952 2.065 1.834 4.148 2.563 6.203l-3.994 1.459c-.69-1.957-1.533-3.941-2.446-5.907l3.877-1.755zM49.085 98.937a73.623 73.623 0 004.055 5.002l-3.258 2.477c-1.547-1.743-2.94-3.58-4.249-5.25l3.452-2.228zm232.803 45.122l1.424 3.616a298.008 298.008 0 01-6.697 2.628l-1.37-3.698c2.13-.812 4.49-1.645 6.643-2.546zM62.354 113.252a123.18 123.18 0 005.006 4.285l-2.862 3.066a143.794 143.794 0 01-5.138-4.399l2.994-2.952zm199.668 37.815l1.064 3.766c-2.261.698-4.608 1.35-6.879 1.832l-.95-3.837c2.218-.4 4.564-1.052 6.757-1.732l.008-.029zm73.941 13.961c.324 2.259.542 4.559.622 6.774l-4.218.319a54.16 54.16 0 00-.603-6.221l4.199-.872zM77.95 125.474l5.476 3.696-2.508 3.313c-1.895-1.254-3.82-2.514-5.646-3.787l2.678-3.222zm163.63 30.695l.683 3.882c-2.302.476-4.695.937-7.013 1.349l-.583-3.894c2.257-.301 4.651-.761 6.891-1.249l.022-.088zM94.927 136.17a305.961 305.961 0 005.917 3.223l-2.2 3.491c-2.039-1.066-4.063-2.191-6.002-3.27l2.285-3.444zm125.817 23.625l.346 3.944c-2.38.279-4.76.559-7.125.779l-.216-3.951c2.234-.336 4.699-.569 6.995-.772zm-107.809-14.336c2.045.914 4.152 1.84 6.212 2.695l-1.886 3.638a193.988 193.988 0 01-6.326-2.746l2-3.587zm222.292 40.162l-.787 3.1-.906 3.568-4.036-.902.861-3.393.742-2.924 4.126.551zM199.816 161.51l.015 3.732c-2.366.098-4.756.162-7.107.201l.174-3.973c2.276.13 4.635.061 6.932-.019l-.014.059zm-67.999-8.562l2.472.623 3.993 1.2-1.417 3.813-4.139-1.256-2.512-.845 1.603-3.535zm47.131 8.392l-.427 3.959a197.709 197.709 0 01-7.059-.493l.581-3.932c2.284.224 4.621.242 6.898.495l.007-.029zm-20.607-2.08l-.987 3.89-6.904-1.23.995-3.919c2.363.544 4.642.919 6.889 1.288l.007-.029zm166.27 44.309l3.773 1.558c-1.047 2.106-2.241 4.156-3.481 6.136l-3.585-1.923a62.062 62.062 0 003.293-5.771zm-11.572 16.279l3.031 2.588a75.501 75.501 0 01-5.291 4.927l-2.728-2.901a64.58 64.58 0 005.042-4.573l-.054-.041zm-174.227-16.87a62.536 62.536 0 016.842 1.982s.43 4.477-1.655 3.74c-2.085-.736-6.389-1.871-6.389-1.871l1.202-3.851zm157.989 29.293l2.02 3.416c-2.09 1.157-4.271 2.297-6.515 3.303l-1.661-3.566c2.114-.999 4.204-2.033 6.156-3.153zm-138.642-21.11a60.023 60.023 0 015.61 4.055l-2.832 3.072a62.77 62.77 0 00-5.263-3.78l2.485-3.347zm119.465 29.066l1.058 3.795a429.075 429.075 0 01-6.88 1.832l-.751-3.863c2.14-.597 4.433-1.167 6.573-1.764zM173.536 224.75a31.384 31.384 0 004.812 3.913l-2.616 3.233a36 36 0 01-5.269-4.514l3.073-2.632zm83.637 19.355l.247 3.957c-2.335.226-4.754.406-7.166.558l.014-3.972c2.305-.109 4.632-.306 6.905-.543zm-67.276-9.136a96.48 96.48 0 006.255 2.397l-1.617 3.717a91.951 91.951 0 01-6.546-2.511l1.908-3.603zm46.346 9.719l-.397 3.964a180.94 180.94 0 01-7.097-.469l.619-3.955c2.483.075 4.723.474 6.875.46zm-27.2-3.651c2.209.393 4.436.973 6.706 1.378l-.987 3.889c-2.332-.415-4.664-.83-6.89-1.41l1.171-3.857z" fill="#88C7F7" fill-opacity=".13"/>
  <path d="M242.047 36.384l-16.522-28.56 17.206 17.136-.684 11.424zM246.713 9.8l-5.109 10.598-16.078-12.574L246.713 9.8z" fill="#80C5F9" fill-opacity=".1"/>
  <path opacity=".59" d="M252.062 18.085l-7.607-3.623-2.851 5.936 10.458-2.313z" fill="#507C9E" fill-opacity=".4"/>
  <path d="M242.731 24.96l9.331-6.875-10.458 2.313-16.078-12.574 17.205 17.136z" fill="url(#Plane__paint0_linear)" fill-opacity=".4"/>
  <path d="M252.062 18.085l-7.607-3.623-2.851 5.936 10.458-2.313z" fill="#E9EFFF" fill-opacity=".4"/>
  <defs>
    <linearGradient id="Plane__paint0_linear" x1="246.712" y1="22.872" x2="235.956" y2="2.355" gradientUnits="userSpaceOnUse">
      <stop offset=".01" stop-color="#352B2B"/>
      <stop offset=".08" stop-color="#110D0D" stop-opacity=".69"/>
      <stop offset=".21" stop-opacity=".32"/>
      <stop offset="1" stop-opacity="0"/>
    </linearGradient>
  </defs>
</svg>
