<svg width="308" height="202" fill="none" xmlns="http://www.w3.org/2000/svg">
  <path fill="url(#Proj2__paint0_linear)" fill-opacity=".5" d="M0 0h299.234v174.62H0z"/>
  <g opacity=".6">
    <path d="M77.429 134.644c-1.161 0-2.767.551-2.48 1.605l52.984 4.03c6.235.477 12.478.947 18.742.947 9.46 0 18.877-1.088 28.316-1.598 8.887-.477 17.788-.444 26.682-.403 8.234.04 18.361 1.43 26.359-.591 1.204-.303 2.416-1.209 2.337-2.371-.036-.537-.337-1.095-.115-1.592.129-.244.334-.445.588-.577 1.641-.947 3.734-.209 5.626.181a14.26 14.26 0 008.908-1.061 2.751 2.751 0 001.261-.981.994.994 0 00.149-.741c-.05-.255-.2-.484-.421-.642a1.68 1.68 0 00-.717-.155l-16.218-1.182a3.98 3.98 0 00-1.785.148c-.637.262-.602.96-1.118 1.249-.838.464-2.745.215-3.705.269-2.458.127-4.916.255-7.382.369-4.907.22-9.823.405-14.749.558-10.034.315-20.117.503-30.172.671-19.888.302-39.783.464-59.664 1.182-11.145.39-22.282.457-33.426.685z" fill="url(#Proj2__paint1_linear)"/>
    <path d="M118.172 31.17a4.335 4.335 0 00-2.867.067c-.59.197-1.13.508-1.584.913a4.198 4.198 0 00-1.053 1.437.483.483 0 01-.205.362.552.552 0 01-.426.095 4.365 4.365 0 00-2.824 1.014c-.903.772-.903 1.72-1.024 2.828a1.12 1.12 0 00-.954 0 2.956 2.956 0 00-.795.537 3.122 3.122 0 00-.925 1.108c-.286.732.036 1.538.051 2.317a.24.24 0 01-.065.195.248.248 0 01-.186 0c-.222-.04-.423-.148-.645-.168-.26.002-.511.09-.71.246a1.037 1.037 0 00-.38.613c-.084.482-.057.974.079 1.444.133.471.118.968-.043 1.431a3.098 3.098 0 01-.666.813 4.278 4.278 0 00-1.434 2.572c-.042.476.095.951.387 1.343.15.194.351.347.584.446.232.099.488.14.742.118 1.19-.148 1.606-1.712 2.738-2.082 1.132-.37 2.401-1.618 3.132-2.606.587-.792 1.161-1.712 2.15-2.014.325-.065.639-.174.932-.323.194-.142.355-.32.473-.524a6.638 6.638 0 00.938-1.84c.359-1.29 0-2.74.667-3.929.19-.34.455-.64.778-.879.322-.238.694-.41 1.092-.504.337-.08.717-.101 1.025-.188.39-.106.758-.271 1.09-.49a3.333 3.333 0 001.098-.944 3.08 3.08 0 00.564-1.293c.065-.947-.845-1.793-1.734-2.116z" fill="#FF792E"/>
    <path d="M121.103 32.761c.358.13.655.375.838.691.183.316.239.683.158 1.035a2.256 2.256 0 01-.537.76l-1.297 1.342-.538-1.867a1.485 1.485 0 00-.523-.907 1.282 1.282 0 00-1.211 0c-.38.182-.717.464-1.054.672-.093.054-.222.114-.322.06-.101-.053-.115-.248-.065-.382.617-1.599 2.975-2.042 4.551-1.404z" fill="#FF792E"/>
    <path d="M121.985 83.286c.039.629.262 1.235.645 1.753.58.672 1.548 1.008 2.351 1.498.082.04.155.095.212.163a.568.568 0 01.117.233.404.404 0 01-.087.226.445.445 0 01-.207.143c-.17.045-.348.057-.523.034a21.947 21.947 0 00-2.472-.221c-.416 0-.896.04-1.161-.262a1.112 1.112 0 01-.165-.86 10.958 10.958 0 00-.287-3.311 2 2 0 01-.093-.82.73.73 0 01.18-.344.8.8 0 01.339-.216.848.848 0 01.409-.028.821.821 0 01.369.165c.473.383.315 1.33.373 1.847zm-13.259 4.158a3.29 3.29 0 00.244 1.84c.423.799 1.304 1.276 1.985 1.907a.57.57 0 01.174.2.516.516 0 01.062.25.399.399 0 01-.132.204.445.445 0 01-.233.098 1.225 1.225 0 01-.516-.06 22.794 22.794 0 00-2.379-.672c-.409-.067-.889-.134-1.083-.47a1.13 1.13 0 010-.873c.312-1.076.456-2.19.43-3.304a1.998 1.998 0 01.086-.82.76.76 0 01.251-.303.843.843 0 01.785-.097c.129.05.241.13.326.233.409.45.05 1.35 0 1.867z" fill="#FCBDBA"/>
    <path d="M106.117 57.221s6.838 9.51 11.317 12.351c-.086.95-.065 1.908.064 2.854.23 1.538 1.025 2.888 1.283 4.4l.86 5.084c.036.228.108.503.344.584a.761.761 0 00.437 0l1.892-.484a76.73 76.73 0 01.208-9.16c.155-1.233.189-2.476.101-3.715-.316-2.686-2.666-5.084-4.3-7.24-.982-1.302-2.036-3.25-3.412-4.237-1.147-.82-2.766-.43-4.207-.296-1.08.097-2.17.024-3.225-.215a1.517 1.517 0 00-1.362.074z" fill="#544E54"/>
    <path d="M103.516 57.16s2.659 11.196 5.733 15.374c-.446.86-.799 1.76-1.053 2.686-.17.759-.268 1.53-.294 2.304l-.616 9.349a8.478 8.478 0 002.816-.336l3.498-8.24a10.864 10.864 0 001.161-4.185c0-2.807-2.867-13.056-3.204-13.573-.752-1.162-2.408-1.343-3.798-1.72a9.876 9.876 0 01-2.917-1.302c-.437-.256-.832-.504-1.326-.356z" fill="#544E54"/>
    <path d="M128.062 48.443a9.059 9.059 0 004.666.672c.467-.12.956-.144 1.433-.067-.208.275-.408.671-.114.906.09.056.193.088.301.094a2.64 2.64 0 001.146-.114c.174-.08.366-.12.559-.114.171.04.318.141.409.282.092.14.12.31.079.47-.102.32-.327.593-.631.766a3.512 3.512 0 01-3.354.175c-.301-.155-.581-.35-.889-.504a7.538 7.538 0 00-1.863-.524 40.181 40.181 0 01-5.54-1.491 2.133 2.133 0 01-.756-.33 1.982 1.982 0 01-.556-.584c-.365-.846.308-2.263 1.383-1.712 1.247.678 2.373 1.551 3.727 2.075z" fill="#FCBDBA"/>
    <path d="M119.161 43.621a20.771 20.771 0 006.995 2.686c.107 0 .236.068.265.168a.25.25 0 01-.05.195 12.034 12.034 0 01-1.914 2.653.872.872 0 01-.308.242.975.975 0 01-.717-.08 59.03 59.03 0 01-4.73-2.016 10.181 10.181 0 01-3.583-2.464 3.244 3.244 0 01-.831-1.948c0-.793.774-2.216 1.841-1.827.481.175.903.732 1.269 1.048.558.481 1.147.93 1.763 1.343z" fill="#68E1FD"/>
    <path d="M119.161 43.621a20.771 20.771 0 006.995 2.686c.107 0 .236.068.265.168a.25.25 0 01-.05.195 12.034 12.034 0 01-1.914 2.653.872.872 0 01-.308.242.975.975 0 01-.717-.08 59.03 59.03 0 01-4.73-2.016 10.181 10.181 0 01-3.583-2.464 3.244 3.244 0 01-.831-1.948c0-.793.774-2.216 1.841-1.827.481.175.903.732 1.269 1.048.558.481 1.147.93 1.763 1.343z" fill="#89C1EB"/>
    <path d="M149.161 39.618a2.728 2.728 0 01.25 3.23c-.31.499-.773.9-1.328 1.149a3.251 3.251 0 01-1.788.249s-3.39.073-2.623 3.069l6.45 7.697-8.213 6.044c-3.197.719-3.276-2.458-3.276-2.458a2.724 2.724 0 00-.277-1.67 2.965 2.965 0 00-1.23-1.237 3.243 3.243 0 00-3.44.234 2.88 2.88 0 00-1.026 1.39 2.713 2.713 0 00-.018 1.69 2.88 2.88 0 00.997 1.409 3.19 3.19 0 001.669.642c2.917.9 1.784 3.56 1.784 3.56l-8.213 6.044-16.691-19.86 8.134-6.044c3.196-.719 3.275 2.458 3.275 2.458-.076.471-.026.952.146 1.4.171.45.459.85.837 1.169a3.14 3.14 0 001.329.655c.494.112 1.01.107 1.502-.014a3.13 3.13 0 001.314-.68c.372-.325.651-.732.813-1.184.162-.451.201-.933.115-1.403a2.785 2.785 0 00-.609-1.286 3.073 3.073 0 00-.956-.75 3.27 3.27 0 00-1.194-.338c-2.888-.893-1.756-3.58-1.756-3.58l8.292-6.132 6.45 7.704s2.867 1.061 3.799-1.672a2.787 2.787 0 01.697-1.557 3.105 3.105 0 011.509-.923 3.272 3.272 0 011.801.027 3.077 3.077 0 011.475.968z" fill="#68E1FD"/>
    <path d="M149.161 39.618a2.728 2.728 0 01.25 3.23c-.31.499-.773.9-1.328 1.149a3.251 3.251 0 01-1.788.249s-3.39.073-2.623 3.069l6.45 7.697-8.213 6.044c-3.197.719-3.276-2.458-3.276-2.458a2.724 2.724 0 00-.277-1.67 2.965 2.965 0 00-1.23-1.237 3.243 3.243 0 00-3.44.234 2.88 2.88 0 00-1.026 1.39 2.713 2.713 0 00-.018 1.69 2.88 2.88 0 00.997 1.409 3.19 3.19 0 001.669.642c2.917.9 1.784 3.56 1.784 3.56l-8.213 6.044-16.691-19.86 8.134-6.044c3.196-.719 3.275 2.458 3.275 2.458-.076.471-.026.952.146 1.4.171.45.459.85.837 1.169a3.14 3.14 0 001.329.655c.494.112 1.01.107 1.502-.014a3.13 3.13 0 001.314-.68c.372-.325.651-.732.813-1.184.162-.451.201-.933.115-1.403a2.785 2.785 0 00-.609-1.286 3.073 3.073 0 00-.956-.75 3.27 3.27 0 00-1.194-.338c-2.888-.893-1.756-3.58-1.756-3.58l8.292-6.132 6.45 7.704s2.867 1.061 3.799-1.672a2.787 2.787 0 01.697-1.557 3.105 3.105 0 011.509-.923 3.272 3.272 0 011.801.027 3.077 3.077 0 011.475.968z" fill="url(#Proj2__paint2_linear)"/>
    <path d="M122.021 57.134c1.755 1.343 3.583 2.787 5.733 3.136.414.087.842.095 1.259.025.417-.07.815-.218 1.171-.434a.746.746 0 00.288-.286.677.677 0 00.084-.386c-.079-.33-.509-.443-.86-.504a12.377 12.377 0 01-4.629-1.558 13.297 13.297 0 01-1.484-1.142l-3.49-2.914a.46.46 0 00-.351-.155c-.144 0-.23.155-.294.276-.217.412-.38.847-.488 1.296-.107.49 0 .557.452.84a39.313 39.313 0 012.609 1.806z" fill="url(#Proj2__paint3_linear)"/>
    <path d="M123.64 54.676a8.786 8.786 0 004.3 1.88c.475.006.942.11 1.369.303-.294.208-.609.564-.387.839a.628.628 0 00.265.168c.357.143.745.207 1.133.188.192-.028.388-.014.573.04a.61.61 0 01.306.377.577.577 0 01-.07.47 1.363 1.363 0 01-.831.57 3.51 3.51 0 01-1.738.063 3.369 3.369 0 01-1.53-.775c-.251-.228-.459-.49-.717-.712a7.073 7.073 0 00-1.634-.987 38.762 38.762 0 01-4.873-2.888 2.042 2.042 0 01-.627-.513 1.9 1.9 0 01-.362-.702c-.1-.914.967-2.102 1.842-1.283 1.017.967 1.842 2.075 2.981 2.962z" fill="#FCBDBA"/>
    <path d="M103.516 58.598c.128.144.29.259.473.336.721.385 1.471.722 2.243 1.007a9.561 9.561 0 006.199-.047 8.445 8.445 0 002.222-1.135c.256-.163.471-.376.631-.624.19-.405.25-.854.172-1.29-.179-2.263-.445-4.6 0-6.797.143-.754.383-1.49.716-2.19a16.43 16.43 0 001.434-3.001 4.198 4.198 0 00-.067-1.93 4.372 4.372 0 00-.929-1.724c-.932-1.115-2.638-2.102-4.143-1.598-1.738.614-3.246 1.693-4.336 3.103a19.843 19.843 0 00-2.795 5.138c-.286.718-.566 1.437-.788 2.176a29.749 29.749 0 00-.918 5.446c-.078.766-.15 1.531-.236 2.297-.068.282-.024.578.122.833z" fill="#88C7F7"/>
    <path d="M112.431 59.894a8.46 8.46 0 002.222-1.135c.256-.163.471-.376.631-.624.19-.405.25-.854.172-1.29-.18-2.263-.445-4.6 0-6.797-.287-.268-.61-.51-.925-.752-.717-.55-1.749-1.639-2.788-1.565.251 1.028.452 2.076.602 3.123.151 1.048.093 2.136.273 3.17.237 1.83.191 3.683-.137 5.5-.03.122-.047.246-.05.37z" fill="url(#Proj2__paint4_linear)"/>
    <path d="M121.153 51.15a.447.447 0 01.237.262.423.423 0 01-.122.302 8.845 8.845 0 01-2.408 2.183.634.634 0 01-.315.12.615.615 0 01-.352-.154c-1.433-1.027-2.866-2.015-4.264-3.09a10.342 10.342 0 01-2.365-2.162 9.041 9.041 0 01-1.104-2.411c-.852-2.519 1.728-3.613 3.455-1.766 2.279 2.444 4.357 4.829 7.238 6.716z" fill="#89C1EB"/>
    <path d="M120.802 86.947a.49.49 0 01.072-.51c.158-.142.416-.075.616 0a7.78 7.78 0 001.384.476c.48.118.989.068 1.433-.141.244-.134.48-.336.76-.316.14.02.275.068.394.141.43.21.892.357 1.369.437.2.016.394.076.566.174.052.035.09.085.107.142 0 .134-.136.235-.272.282-1.491.544-3.161.342-4.752.18a2.054 2.054 0 00-.537 0c-.265.048-.588.176-.81 0a1.69 1.69 0 01-.33-.865zm-14.154 3.828a.506.506 0 01.136-.497c.179-.121.423 0 .616.074.417.248.855.461 1.312.638a2.2 2.2 0 001.433 0c.258-.101.516-.276.796-.222.135.037.262.099.372.181.395.271.833.482 1.297.625.2.039.387.121.545.242a.22.22 0 01.056.066.212.212 0 01.023.081c0 .135-.158.215-.301.249-1.555.37-3.182 0-4.737-.37a2.122 2.122 0 00-.538-.073c-.265 0-.602.107-.802-.121a1.727 1.727 0 01-.208-.873z" fill="#473F47"/>
    <path d="M119.921 37.368c-.122.37-.244.74-.344 1.115a10.993 10.993 0 01-.473 1.652 1.97 1.97 0 01-.478.718 2.13 2.13 0 01-.755.464c-.29.087-.605.066-.878-.06a1.135 1.135 0 01-.591-.611c-.344.074-.466.47-.459.806a1.36 1.36 0 01-.186.953c-.323.356-.953.209-1.376-.047a3.712 3.712 0 01-1.43-1.647 3.437 3.437 0 01-.211-2.114c.351-1.497.336-3.29 1.247-4.587a4.19 4.19 0 011.225-1.094 3.28 3.28 0 011.433-.544 4.23 4.23 0 011.083.08c1.519.242 2.809.45 2.816 2.082a8.677 8.677 0 01-.623 2.834z" fill="#FCBDBA"/>
    <path d="M118.05 34.729c-.236 0-.509-.054-.716.08-.208.135-.223.437-.352.672-.25.437-.888.497-1.368.725a1.739 1.739 0 00-.7.631 1.59 1.59 0 00-.246.88.977.977 0 00-.151-.564.378.378 0 00-.252-.153.408.408 0 00-.293.066.417.417 0 00-.107.255c-.02.192.014.385.096.562.083.176.213.33.377.446a1.73 1.73 0 01-.673.698 1.886 1.886 0 01-.968.249.957.957 0 01-.595-.188.895.895 0 01-.23-.363c-.408-1.075.215-2.223.366-3.358.014-.4.084-.798.208-1.182a2.61 2.61 0 01.537-.732 5.495 5.495 0 012.552-1.605c.96-.249 2.866-.121 3.619.59a1.338 1.338 0 01.189 1.459 1.45 1.45 0 01-.522.585 1.582 1.582 0 01-.771.247z" fill="#FF792E"/>
    <path d="M117.627 136.686V124.12c1.763-3.586 5.239-1.142 5.239-1.142a4.008 4.008 0 002.011 1.058 4.187 4.187 0 002.299-.18 3.899 3.899 0 001.795-1.357 3.52 3.52 0 00.676-2.066 3.52 3.52 0 00-.676-2.066 3.899 3.899 0 00-1.795-1.357 4.187 4.187 0 00-2.299-.18 4.008 4.008 0 00-2.011 1.058c-3.282 2.014-5.239-1.142-5.239-1.142v-12.573h13.409s3.397-1.833 1.219-4.91a3.633 3.633 0 01-1.129-1.884c-.167-.72-.1-1.47.192-2.154a3.75 3.75 0 011.448-1.682 4.123 4.123 0 012.205-.634c.786 0 1.554.22 2.205.634a3.742 3.742 0 011.447 1.682c.293.684.36 1.434.193 2.154a3.633 3.633 0 01-1.129 1.885s-2.609 3.257 1.219 4.909h13.409v32.513h-34.688z" fill="url(#Proj2__paint5_linear)"/>
    <path d="M91.934 136.014h-2.422l24.797-61.358c.083-.198.228-.368.416-.488a1.205 1.205 0 011.164-.063c.163.08.302.196.407.337.104.142.17.305.192.475.023.17 0 .344-.065.505l-24.489 60.592zm14.527 0h-2.422l25.07-62.043h2.422l-25.07 62.043z" fill="#68E1FD"/>
    <path d="M125.195 83.662h-12.814l.645-1.598h12.814l-.645 1.598zm-3.941 9.745h-12.815l.653-1.598h12.814l-.652 1.598zm-3.935 9.746h-12.814l.645-1.606h12.814l-.645 1.606zm-3.935 9.738H100.57l.645-1.599h12.814l-.645 1.599zm-3.941 9.745H96.628l.653-1.599h12.807l-.645 1.599z" fill="#68E1FD"/>
    <path d="M113.091 83.662l-3.297 8.147h12.133l-.645 1.599H109.17l-3.289 8.139h12.105l-.645 1.599h-12.127l-3.289 8.146h12.119l-.645 1.599H101.28l-3.297 8.146h12.112l-.652 1.599H97.338l-5.404 13.378h-2.422l24.797-61.358a1.1 1.1 0 01.509-.488 1.2 1.2 0 01.72-.096c.245.043.468.16.634.334.167.173.268.393.287.626 0 .129-.024.256-.072.376l-2.687 6.656h12.105l-.645 1.598h-12.069z" fill="url(#Proj2__paint6_linear)"/>
    <path d="M106.461 136.014h-2.422l25.07-62.043h2.422l-25.07 62.043z" fill="url(#Proj2__paint7_linear)"/>
    <path d="M221.618 104.173v32.513H186.93v-12.573s1.957-3.183 5.239-1.141a4.01 4.01 0 002.012 1.057 4.175 4.175 0 002.298-.18 3.9 3.9 0 001.796-1.356c.44-.61.676-1.33.676-2.067a3.53 3.53 0 00-.676-2.066 3.893 3.893 0 00-1.796-1.356 4.184 4.184 0 00-2.298-.181 4.019 4.019 0 00-2.012 1.058s-3.476 2.445-5.239-1.142v-12.566h13.41c3.827-1.652 1.218-4.91 1.218-4.91a3.633 3.633 0 01-1.129-1.884c-.167-.72-.1-1.47.193-2.154a3.742 3.742 0 011.447-1.682 4.123 4.123 0 012.205-.634c.786 0 1.554.22 2.205.634a3.75 3.75 0 011.448 1.682c.292.684.359 1.434.192 2.154a3.633 3.633 0 01-1.129 1.885c-2.15 3.076 1.219 4.909 1.219 4.909h13.409z" fill="#68E1FD"/>
    <path d="M221.618 104.173v32.513H186.93v-12.573s1.957-3.183 5.239-1.141a4.01 4.01 0 002.012 1.057 4.175 4.175 0 002.298-.18 3.9 3.9 0 001.796-1.356c.44-.61.676-1.33.676-2.067a3.53 3.53 0 00-.676-2.066 3.893 3.893 0 00-1.796-1.356 4.184 4.184 0 00-2.298-.181 4.019 4.019 0 00-2.012 1.058s-3.476 2.445-5.239-1.142v-12.566h13.41c3.827-1.652 1.218-4.91 1.218-4.91a3.633 3.633 0 01-1.129-1.884c-.167-.72-.1-1.47.193-2.154a3.742 3.742 0 011.447-1.682 4.123 4.123 0 012.205-.634c.786 0 1.554.22 2.205.634a3.75 3.75 0 011.448 1.682c.292.684.359 1.434.192 2.154a3.633 3.633 0 01-1.129 1.885c-2.15 3.076 1.219 4.909 1.219 4.909h13.409z" fill="url(#Proj2__paint8_linear)"/>
    <path d="M164.269 87.914a3.527 3.527 0 01-.681 2.064 3.904 3.904 0 01-1.796 1.354 4.188 4.188 0 01-2.297.181 4.02 4.02 0 01-2.013-1.054c-3.282-2.015-5.239 1.142-5.239 1.142v12.572h34.688V71.661h-34.688v12.566c1.763 3.586 5.239 1.141 5.239 1.141a4.02 4.02 0 012.013-1.054 4.19 4.19 0 012.297.181 3.904 3.904 0 011.796 1.355c.442.609.679 1.327.681 2.064zm2.602 21.169a3.631 3.631 0 00-1.129 1.885 3.47 3.47 0 00.192 2.153 3.75 3.75 0 001.448 1.683 4.122 4.122 0 002.205.634c.786 0 1.554-.221 2.205-.634a3.742 3.742 0 001.447-1.683c.293-.683.36-1.434.193-2.153a3.631 3.631 0 00-1.129-1.885s-2.609-3.258 1.218-4.91h-7.876s3.404 1.834 1.226 4.91z" fill="#68E1FD"/>
    <path d="M152.243 71.66v12.567c1.763 3.586 5.239 1.141 5.239 1.141a4.011 4.011 0 012.011-1.057 4.184 4.184 0 012.299.18 3.896 3.896 0 011.795 1.356c.441.61.676 1.33.676 2.067 0 .736-.235 1.456-.676 2.066a3.896 3.896 0 01-1.795 1.356c-.73.274-1.53.337-2.299.18a4.011 4.011 0 01-2.011-1.057c-3.282-2.015-5.239 1.142-5.239 1.142v12.572h13.402s3.397 1.834 1.218 4.91a3.636 3.636 0 00-1.128 1.885 3.47 3.47 0 00.192 2.153 3.75 3.75 0 001.448 1.683 4.122 4.122 0 002.205.634c.786 0 1.554-.221 2.205-.634a3.742 3.742 0 001.447-1.683 3.477 3.477 0 00.193-2.153 3.631 3.631 0 00-1.129-1.885s-2.609-3.258 1.218-4.91h13.417V71.661h-34.688z" fill="#AEDAFB"/>
    <path d="M152.243 104.173v32.513h34.688v-12.573s1.956-3.183 5.239-1.141a4.002 4.002 0 002.011 1.057 4.175 4.175 0 002.298-.18 3.9 3.9 0 001.796-1.356c.44-.61.676-1.33.676-2.067a3.53 3.53 0 00-.676-2.066 3.893 3.893 0 00-1.796-1.356 4.184 4.184 0 00-2.298-.181 4.012 4.012 0 00-2.011 1.058s-3.476 2.445-5.239-1.142v-12.566h-13.402c-3.827 1.652-1.219 4.91-1.219 4.91a3.631 3.631 0 011.129 1.885c.167.719.1 1.47-.192 2.153a3.75 3.75 0 01-1.448 1.683 4.122 4.122 0 01-2.205.634 4.122 4.122 0 01-2.205-.634 3.742 3.742 0 01-1.447-1.683 3.462 3.462 0 01-.193-2.153c.167-.72.56-1.377 1.129-1.885 2.15-3.076-1.219-4.91-1.219-4.91h-13.416z" fill="#89C1EB"/>
    <path d="M117.627 136.686V124.12c1.763-3.586 5.239-1.142 5.239-1.142a4.008 4.008 0 002.011 1.058 4.187 4.187 0 002.299-.18 3.899 3.899 0 001.795-1.357 3.52 3.52 0 00.676-2.066 3.52 3.52 0 00-.676-2.066 3.899 3.899 0 00-1.795-1.357 4.187 4.187 0 00-2.299-.18 4.008 4.008 0 00-2.011 1.058c-3.282 2.014-5.239-1.142-5.239-1.142v-12.573h13.409s3.397-1.833 1.219-4.91a3.633 3.633 0 01-1.129-1.884c-.167-.72-.1-1.47.192-2.154a3.75 3.75 0 011.448-1.682 4.123 4.123 0 012.205-.634c.786 0 1.554.22 2.205.634a3.742 3.742 0 011.447 1.682c.293.684.36 1.434.193 2.154a3.633 3.633 0 01-1.129 1.885s-2.609 3.257 1.219 4.909h13.409v32.513h-34.688z" fill="#68E1FD"/>
    <path d="M117.627 136.686V124.12c1.763-3.586 5.239-1.142 5.239-1.142a4.008 4.008 0 002.011 1.058 4.187 4.187 0 002.299-.18 3.899 3.899 0 001.795-1.357 3.52 3.52 0 00.676-2.066 3.52 3.52 0 00-.676-2.066 3.899 3.899 0 00-1.795-1.357 4.187 4.187 0 00-2.299-.18 4.008 4.008 0 00-2.011 1.058c-3.282 2.014-5.239-1.142-5.239-1.142v-12.573h13.409s3.397-1.833 1.219-4.91a3.633 3.633 0 01-1.129-1.884c-.167-.72-.1-1.47.192-2.154a3.75 3.75 0 011.448-1.682 4.123 4.123 0 012.205-.634c.786 0 1.554.22 2.205.634a3.742 3.742 0 011.447 1.682c.293.684.36 1.434.193 2.154a3.633 3.633 0 01-1.129 1.885s-2.609 3.257 1.219 4.909h13.409v32.513h-34.688z" fill="url(#Proj2__paint9_linear)"/>
    <path d="M164.312 87.92a3.526 3.526 0 01-.681 2.064 3.904 3.904 0 01-1.796 1.355c-.73.273-1.53.336-2.298.18a4.017 4.017 0 01-2.012-1.053s-3.476-2.445-5.239 1.142v12.565h-13.409c-3.827-1.652-1.219-4.91-1.219-4.91a3.633 3.633 0 001.129-1.884c.167-.72.1-1.47-.192-2.154a3.75 3.75 0 00-1.448-1.682 4.123 4.123 0 00-2.205-.634c-.786 0-1.554.22-2.205.634a3.742 3.742 0 00-1.447 1.682 3.465 3.465 0 00-.193 2.154c.167.72.56 1.376 1.129 1.885 2.15 3.076-1.218 4.909-1.218 4.909h-13.381V71.661h13.28c3.827 1.652 1.219 4.91 1.219 4.91a3.633 3.633 0 00-1.129 1.884c-.167.72-.1 1.47.192 2.154a3.75 3.75 0 001.448 1.683 4.123 4.123 0 002.205.633c.786 0 1.554-.22 2.205-.633a3.742 3.742 0 001.447-1.683c.293-.684.36-1.434.193-2.154a3.633 3.633 0 00-1.129-1.885c-2.15-3.076 1.219-4.91 1.219-4.91h13.538v12.573s1.956 3.184 5.239 1.142a4.013 4.013 0 012.012-1.054 4.188 4.188 0 012.297.181 3.91 3.91 0 011.797 1.354 3.54 3.54 0 01.681 2.064h-.029z" fill="#89C1EB"/>
  </g>
  <defs>
    <linearGradient id="Proj2__paint0_linear" x1="149.617" y1="0" x2="149.617" y2="174.62" gradientUnits="userSpaceOnUse">
      <stop stop-color="#BAC9D5"/>
      <stop offset="1" stop-color="#7BC6FF" stop-opacity="0"/>
    </linearGradient>
    <linearGradient id="Proj2__paint1_linear" x1="34244.8" y1="1490.96" x2="34251.8" y2="3169.77" gradientUnits="userSpaceOnUse">
      <stop offset=".01" stop-color="#4B4B4B"/>
      <stop offset=".08" stop-opacity=".69"/>
      <stop offset=".21" stop-opacity=".32"/>
      <stop offset="1" stop-opacity="0"/>
    </linearGradient>
    <linearGradient id="Proj2__paint2_linear" x1="157.076" y1="94.879" x2="101.175" y2="-26.234" gradientUnits="userSpaceOnUse">
      <stop offset=".01"/>
      <stop offset=".08" stop-opacity=".69"/>
      <stop offset=".21" stop-opacity=".32"/>
      <stop offset="1" stop-opacity="0"/>
    </linearGradient>
    <linearGradient id="Proj2__paint3_linear" x1="1876.63" y1="716.15" x2="1920.32" y2="1051.89" gradientUnits="userSpaceOnUse">
      <stop offset=".01" stop-color="#363636"/>
      <stop offset=".08" stop-opacity=".69"/>
      <stop offset=".21" stop-opacity=".32"/>
      <stop offset="1" stop-opacity="0"/>
    </linearGradient>
    <linearGradient id="Proj2__paint4_linear" x1="-9818.63" y1="-1654.45" x2="-9919.02" y2="-1576.15" gradientUnits="userSpaceOnUse">
      <stop offset=".01" stop-color="#323232"/>
      <stop offset=".08" stop-opacity=".69"/>
      <stop offset=".21" stop-opacity=".32"/>
      <stop offset="1" stop-opacity="0"/>
    </linearGradient>
    <linearGradient id="Proj2__paint5_linear" x1="6007.56" y1="5688.46" x2="5924.14" y2="13511" gradientUnits="userSpaceOnUse">
      <stop offset=".01"/>
      <stop offset=".08" stop-opacity=".69"/>
      <stop offset=".21" stop-opacity=".32"/>
      <stop offset="1" stop-opacity="0"/>
    </linearGradient>
    <linearGradient id="Proj2__paint6_linear" x1="6022.66" y1="9868.8" x2="2867.07" y2="10928.9" gradientUnits="userSpaceOnUse">
      <stop offset=".01"/>
      <stop offset=".08" stop-opacity=".69"/>
      <stop offset=".21" stop-opacity=".32"/>
      <stop offset="1" stop-opacity="0"/>
    </linearGradient>
    <linearGradient id="Proj2__paint7_linear" x1="3703.83" y1="9036.74" x2="-676.469" y2="10149.9" gradientUnits="userSpaceOnUse">
      <stop offset=".01"/>
      <stop offset=".08" stop-opacity=".69"/>
      <stop offset=".21" stop-opacity=".32"/>
      <stop offset="1" stop-opacity="0"/>
    </linearGradient>
    <linearGradient id="Proj2__paint8_linear" x1="227.977" y1="166.477" x2="146.992" y2="36.044" gradientUnits="userSpaceOnUse">
      <stop offset=".01"/>
      <stop offset=".08" stop-opacity=".69"/>
      <stop offset=".08" stop-opacity=".32"/>
      <stop offset="1" stop-opacity="0"/>
    </linearGradient>
    <linearGradient id="Proj2__paint9_linear" x1="158.674" y1="166.477" x2="77.689" y2="36.044" gradientUnits="userSpaceOnUse">
      <stop offset=".01"/>
      <stop offset=".08" stop-opacity=".69"/>
      <stop offset=".333" stop-opacity=".32"/>
      <stop offset="1" stop-opacity="0"/>
    </linearGradient>
  </defs>
</svg>
